<?xml version="1.0" standalone="no"?>
<!DOCTYPE svg PUBLIC "-//W3C//DTD SVG 20010904//EN"
 "http://www.w3.org/TR/2001/REC-SVG-20010904/DTD/svg10.dtd">
<svg version="1.0" xmlns="http://www.w3.org/2000/svg"
 width="498.000000pt" height="501.000000pt" viewBox="0 0 498.000000 501.000000"
 preserveAspectRatio="xMidYMid meet">

<g transform="translate(0.000000,501.000000) scale(0.100000,-0.100000)"
fill="#000000" stroke="none">
<path d="M2350 4934 c-25 -3 -97 -11 -160 -20 -718 -96 -1381 -536 -1747
-1159 -160 -273 -250 -527 -313 -881 -31 -170 -38 -503 -16 -674 56 -425 179
-762 394 -1080 113 -167 184 -253 319 -387 210 -208 389 -336 648 -463 337
-166 658 -241 1039 -241 389 0 716 78 1061 253 251 128 424 254 625 457 388
391 604 818 702 1391 18 102 17 586 0 700 -61 394 -205 765 -417 1071 -105
152 -180 238 -336 385 -179 168 -350 286 -578 400 -319 158 -651 240 -1011
248 -91 2 -185 2 -210 0z m365 -114 c553 -52 1049 -289 1435 -686 394 -406
617 -911 660 -1500 24 -316 -35 -701 -151 -999 -314 -801 -1028 -1371 -1856
-1480 -232 -31 -552 -16 -782 35 -817 182 -1502 840 -1726 1657 -65 238 -80
349 -80 628 0 280 11 380 69 609 211 832 860 1478 1687 1680 237 57 507 78
744 56z"/>
<path d="M2315 4753 c-760 -67 -1441 -529 -1789 -1213 -377 -740 -330 -1636
122 -2315 110 -165 190 -261 326 -392 186 -181 366 -306 603 -420 456 -220
985 -271 1479 -144 373 96 735 303 1015 581 372 370 608 859 669 1389 18 149
8 462 -19 621 -86 506 -321 952 -679 1290 -358 339 -807 546 -1304 599 -90 10
-331 12 -423 4z m225 -140 c-1 -44 -2 -47 -15 -29 -8 11 -15 23 -15 28 0 4
-18 8 -40 8 l-40 0 6 -92 c9 -157 12 -175 37 -183 21 -6 22 -6 2 -15 -28 -12
-135 -12 -135 0 0 6 6 10 14 10 21 0 23 15 18 148 -5 132 -8 140 -56 128 -15
-4 -28 -17 -34 -36 -15 -43 -22 -37 -22 18 l0 47 62 -1 c52 -1 122 4 206 14 8
2 12 -13 12 -45z m210 20 c12 -4 12 -7 -4 -18 -18 -14 -18 -16 4 -70 12 -30
25 -55 29 -55 3 0 22 23 41 51 31 46 33 52 17 60 -31 18 -18 29 26 23 69 -10
72 -12 37 -37 -18 -12 -51 -48 -73 -79 -33 -46 -41 -68 -45 -114 -4 -45 -1
-59 12 -66 9 -5 16 -14 16 -19 0 -10 -47 -7 -122 7 -34 7 -37 21 -6 26 19 2
24 12 30 55 7 46 4 61 -29 138 -19 48 -42 89 -49 92 -51 19 57 26 116 6z
m-580 -19 c0 -4 -7 -12 -15 -18 -13 -10 -13 -24 5 -121 24 -127 34 -155 55
-155 8 0 15 -4 15 -9 0 -11 -128 -36 -137 -27 -4 3 1 12 10 19 16 11 16 20 -5
137 -20 109 -26 126 -45 135 -35 15 -28 23 30 33 67 12 87 14 87 6z m-230 -84
c16 -39 8 -48 -19 -21 -25 25 -63 27 -85 5 -37 -37 -8 -77 64 -89 86 -14 120
-44 120 -105 0 -41 -43 -85 -99 -100 -57 -15 -72 -11 -94 27 -25 44 -12 62 22
30 38 -37 75 -43 100 -18 12 12 21 28 21 36 0 25 -37 53 -77 60 -87 15 -123
44 -123 100 1 38 25 70 70 89 57 25 86 21 100 -14z m1424 -51 c50 -33 80 -97
73 -155 -10 -92 -79 -154 -172 -154 -53 0 -89 16 -126 57 -37 40 -49 66 -49
110 1 71 46 140 110 166 35 15 128 1 164 -24z m-1725 -80 c18 -17 22 -29 19
-58 -3 -20 -8 -43 -12 -51 -7 -18 83 -76 134 -86 27 -6 29 -9 18 -21 -8 -7
-31 -16 -51 -20 -31 -5 -47 0 -96 31 -34 21 -66 34 -75 30 -13 -5 -12 -12 9
-54 19 -38 31 -49 52 -52 25 -3 22 -6 -34 -36 -73 -37 -77 -38 -61 -13 10 17
6 32 -30 103 -63 124 -79 148 -102 148 -37 0 -21 15 61 58 92 47 134 53 168
21z m2036 -92 l94 -63 -22 -34 -22 -35 -3 37 c-3 37 -38 78 -66 78 -6 0 -26
-23 -43 -50 l-32 -49 29 -21 c21 -15 37 -19 56 -14 l27 7 -19 -32 c-29 -49
-44 -59 -44 -28 0 33 -58 78 -71 56 -5 -8 -20 -33 -34 -55 -21 -36 -23 -43
-10 -54 8 -7 12 -16 9 -21 -3 -5 -33 10 -67 34 -59 40 -61 42 -34 45 24 3 40
21 98 109 56 85 67 108 59 123 -23 44 -16 41 95 -33z m-736 -159 l374 -112
-54 -17 c-30 -10 -93 -30 -141 -44 l-88 -26 0 -138 c0 -111 3 -141 15 -151 18
-15 19 -49 1 -72 -11 -15 -10 -34 5 -115 10 -54 21 -110 24 -125 l5 -28 -61 0
-60 0 6 58 c3 31 11 87 16 124 9 56 8 70 -5 91 -16 24 -13 55 7 68 14 9 9 282
-5 290 -12 8 -331 89 -348 89 -5 0 -10 -4 -10 -10 0 -5 67 -31 150 -57 82 -26
146 -50 142 -54 -4 -3 -113 -36 -244 -74 l-236 -67 -244 85 c-133 47 -298 105
-366 128 -67 23 -121 43 -119 46 5 4 79 26 417 123 365 104 385 109 415 105
17 -3 198 -56 404 -117z m-1626 86 c22 -30 15 -44 -14 -26 -17 11 -26 10 -55
-8 -19 -12 -34 -27 -34 -34 0 -7 14 -31 32 -53 l31 -41 29 21 c22 16 28 27 23
44 -8 33 10 28 39 -10 33 -43 32 -48 -1 -42 -18 4 -36 -1 -52 -14 l-25 -19 39
-51 c38 -50 39 -51 64 -35 45 28 61 53 54 85 -7 38 12 38 32 -1 8 -16 15 -31
15 -34 0 -8 -179 -146 -190 -146 -13 0 -13 13 2 28 7 7 8 16 1 24 -103 138
-158 199 -175 195 -10 -3 -18 -2 -18 2 0 9 168 140 180 140 3 0 13 -11 23 -25z
m-262 -193 c-8 -13 4 -49 48 -147 32 -71 63 -139 70 -152 22 -40 -11 -36 -155
23 -98 40 -147 55 -166 51 -16 -3 -28 -4 -28 -1 0 7 82 100 91 103 5 2 8 -7 7
-19 -3 -20 8 -28 91 -61 52 -21 96 -36 99 -34 2 3 -16 44 -40 93 -39 81 -45
88 -71 86 -32 -2 -29 6 17 53 32 33 53 36 37 5z m3012 -47 c3 -4 -10 -38 -30
-78 -65 -130 -102 -223 -96 -247 8 -30 -6 -22 -50 27 -40 45 -45 57 -22 48 11
-4 21 7 34 37 l20 43 -33 34 -33 33 -37 -17 c-21 -10 -36 -25 -35 -33 3 -34
-2 -34 -36 -1 -41 39 -44 53 -12 45 14 -3 70 16 157 54 133 58 161 67 173 55z
m-2237 -55 c81 -27 149 -51 151 -52 3 -4 -34 -148 -40 -153 -9 -9 -162 55
-217 91 -30 20 -66 38 -79 42 -40 10 -91 -25 -121 -82 -34 -66 -35 -185 -2
-259 12 -27 21 -51 19 -53 -2 -1 -14 8 -27 22 -13 14 -27 25 -31 25 -10 0 9
-56 33 -95 23 -39 23 -48 -2 -35 -18 10 -19 8 -14 -22 3 -18 7 -38 9 -45 7
-20 -15 -26 -34 -9 -26 24 -33 20 -26 -17 5 -27 -2 -44 -49 -114 -73 -110 -91
-177 -67 -261 7 -24 5 -45 -6 -78 -24 -72 -13 -179 31 -286 35 -85 35 -88 21
-129 -8 -23 -18 -66 -21 -96 l-7 -53 -81 5 -81 4 73 -12 c40 -7 77 -18 83 -24
6 -6 9 -25 7 -43 -3 -30 -7 -34 -49 -45 -40 -10 -149 -69 -149 -81 0 -2 26 9
58 26 75 38 142 54 148 34 2 -8 6 -21 8 -28 3 -9 -9 -24 -30 -36 -36 -23 -94
-89 -113 -130 l-12 -25 18 25 c38 52 73 87 107 105 29 16 37 17 50 6 18 -15
22 -41 6 -41 -11 0 -55 -74 -65 -110 -4 -14 11 3 34 38 22 34 44 62 49 62 4 0
23 -15 41 -34 19 -19 46 -40 62 -46 23 -10 27 -15 19 -30 -14 -26 -12 -43 3
-37 9 3 11 -8 9 -42 -3 -41 -1 -44 11 -28 13 16 15 15 21 -20 11 -59 17 -74
27 -68 5 4 9 16 9 28 1 18 4 16 20 -13 11 -19 29 -46 40 -60 l21 -25 -3 37 -4
36 33 -29 c38 -32 48 -36 39 -14 -7 20 -4 19 55 -11 28 -14 53 -23 55 -21 3 2
0 17 -6 33 -10 28 -10 28 25 -8 19 -21 38 -38 41 -38 3 0 4 18 2 40 -4 46 0
47 61 20 24 -11 45 -20 47 -20 9 0 3 26 -11 54 -20 38 -20 39 15 21 37 -19 39
-19 33 5 -8 32 41 27 55 -5 28 -60 -3 -147 -80 -231 l-41 -44 42 15 c23 8 56
24 72 35 35 26 37 18 6 -24 -13 -17 -38 -57 -57 -90 -32 -57 -32 -58 -9 -51
35 11 77 33 84 45 3 5 10 10 15 10 4 0 -1 -23 -11 -51 -11 -27 -17 -54 -14
-59 6 -10 169 -63 223 -74 l34 -6 -22 36 c-12 19 -20 37 -17 40 3 3 22 -2 43
-11 92 -39 353 -72 377 -49 4 4 -19 19 -51 34 l-57 27 70 8 c158 16 375 72
375 96 0 5 -19 9 -42 10 -24 0 -52 4 -63 8 -17 7 -13 10 25 21 95 26 300 137
339 184 12 14 9 15 -32 10 -85 -12 -86 2 -5 54 117 77 145 106 194 206 34 71
46 107 51 161 7 72 21 67 22 -8 1 -22 5 -36 11 -32 16 10 50 134 51 189 1 28
4 41 6 29 14 -72 42 39 44 170 2 129 16 64 18 -79 1 -135 -22 -234 -80 -340
-23 -41 -38 -74 -34 -74 3 0 31 24 62 53 l56 52 -29 -55 c-33 -62 -133 -173
-195 -216 -23 -15 -36 -30 -30 -32 17 -6 89 25 139 59 63 42 40 8 -58 -84 -84
-81 -189 -155 -278 -196 -28 -14 -52 -27 -52 -31 0 -8 91 5 139 19 19 6 36 9
38 7 7 -6 -122 -85 -197 -120 -78 -37 -250 -86 -303 -86 -20 0 -28 -3 -21 -10
5 -5 52 -13 104 -18 l95 -8 -100 -33 c-87 -29 -117 -34 -230 -38 -71 -3 -155
-1 -185 5 -30 6 -57 8 -59 6 -2 -2 34 -22 80 -44 l84 -41 -65 6 c-110 11 -407
91 -498 135 -46 22 -95 49 -109 60 -49 38 -36 10 28 -62 l64 -72 -50 28 c-80
47 -111 75 -202 184 -47 56 -87 101 -89 99 -2 -2 4 -28 14 -58 11 -30 22 -72
25 -94 5 -33 -1 -25 -38 50 -31 64 -60 106 -100 145 l-56 55 16 -37 c8 -21 15
-40 15 -43 0 -3 -25 21 -57 55 -54 59 -108 97 -167 120 -26 10 -25 7 18 -41
25 -28 46 -55 46 -60 0 -5 -23 9 -51 30 -29 22 -77 46 -109 55 -61 17 -165 22
-174 7 -13 -20 196 -238 307 -319 77 -56 80 -58 73 -34 -9 26 4 34 58 34 67 0
112 -24 146 -78 42 -67 39 -77 -15 -48 -26 15 -56 24 -72 22 -23 -2 -10 -12
79 -55 58 -29 108 -53 111 -53 3 0 8 13 12 30 4 16 16 37 27 44 18 13 26 13
57 0 40 -16 91 -66 91 -89 0 -19 -13 -19 -52 1 -22 11 -33 13 -41 5 -18 -18 2
-28 103 -56 113 -30 110 -30 110 -7 0 33 35 55 77 49 39 -7 87 -36 85 -52 -1
-6 -17 -11 -37 -13 -50 -5 -43 -19 13 -26 26 -4 65 -9 87 -12 l40 -6 -22 24
c-31 32 -29 38 10 38 22 0 49 -11 75 -30 39 -28 48 -30 127 -30 l84 0 51 45
c48 42 54 45 108 45 39 0 67 -6 90 -20 29 -18 38 -19 80 -9 62 16 102 36 102
53 0 7 7 20 17 27 9 8 40 44 70 81 56 71 94 98 137 98 30 0 40 -13 32 -45 -5
-18 -15 -25 -46 -30 -33 -6 -47 -16 -80 -58 -21 -28 -37 -53 -35 -55 6 -6 143
57 182 83 20 14 40 25 45 25 14 0 119 69 150 98 15 14 25 29 22 33 -2 5 17 19
43 33 53 27 83 68 83 114 0 35 -19 46 -56 32 -43 -17 -56 -13 -52 17 4 33 58
73 100 73 42 0 81 -42 76 -81 -3 -16 -2 -29 2 -29 10 0 105 122 156 200 128
198 203 427 212 650 9 213 8 224 -44 330 -39 80 -60 108 -132 179 -82 81 -85
93 -9 54 83 -42 -54 106 -152 162 -41 25 -69 45 -61 45 37 -1 131 -29 174 -53
57 -32 50 -12 -17 50 -44 41 -96 72 -166 99 -36 14 -36 14 24 9 l60 -5 -30 25
c-36 30 -181 105 -204 105 -13 1 -13 2 3 11 12 7 44 9 87 5 38 -4 69 -5 69 -2
0 11 -102 57 -192 86 -51 16 -102 36 -113 44 -18 14 -14 15 50 16 58 1 66 3
45 12 -152 63 -205 96 -214 134 -11 42 -54 125 -79 152 -34 37 -92 62 -142 62
-80 0 -47 22 96 63 156 44 146 46 284 -53 348 -252 610 -656 694 -1076 66
-323 45 -610 -64 -886 -78 -196 -173 -338 -339 -503 -191 -190 -397 -316 -661
-404 -207 -69 -333 -91 -540 -98 -248 -8 -450 20 -674 94 -476 157 -848 492
-1012 912 -270 690 23 1556 674 1992 49 32 92 59 96 59 4 0 75 -23 157 -51z
m842 -143 c131 37 245 69 255 71 37 11 17 -39 -42 -103 -33 -34 -67 -76 -77
-93 -13 -22 -28 -33 -54 -37 -19 -3 -122 -23 -229 -44 l-194 -38 -91 25 c-89
25 -179 65 -224 101 l-23 18 16 74 c9 41 18 80 20 86 2 6 82 -16 205 -57 l202
-68 236 65z m-1015 5 c14 -5 54 -37 90 -70 69 -65 77 -70 77 -46 0 12 4 13 19
5 11 -5 29 -10 40 -10 41 0 29 -21 -41 -69 -40 -28 -91 -66 -113 -85 l-40 -34
-1 51 c0 47 1 49 10 24 12 -33 30 -30 34 5 6 49 -85 202 -113 191 -13 -4 -13
-8 -3 -21 11 -13 11 -14 -1 -7 -9 5 -18 2 -26 -9 -11 -14 -13 -13 -13 11 0 33
23 73 43 73 7 0 25 -4 38 -9z m1508 -17 c17 -8 29 -18 26 -21 -3 -2 -14 0 -25
6 -12 6 -34 11 -51 11 -17 0 -31 5 -31 10 0 15 47 12 81 -6z m1085 -26 c49
-71 48 -69 21 -63 -20 5 -46 -8 -131 -70 l-106 -77 17 -30 c23 -38 46 -50 78
-42 34 8 33 -13 -1 -26 -14 -6 -31 -10 -39 -10 -7 0 -41 41 -75 91 -60 88 -62
92 -35 85 23 -6 39 1 89 35 115 79 147 109 141 130 -11 33 11 21 41 -23z
m-3463 -34 c-8 -22 18 -46 119 -110 79 -50 92 -55 114 -45 33 15 30 3 -17 -62
-42 -59 -54 -70 -45 -39 8 23 -12 41 -123 116 -88 59 -100 63 -119 44 -9 -9
-12 -9 -12 0 0 19 72 122 81 116 4 -2 6 -11 2 -20z m2167 -1 c0 -10 -28 -54
-61 -98 -71 -92 -103 -157 -94 -186 6 -18 8 -19 19 -4 10 13 11 9 8 -24 -5
-49 -15 -52 -32 -10 -25 59 24 195 106 294 39 48 54 56 54 28z m-1372 -64 c-9
-6 -9 -14 -1 -32 9 -19 8 -25 -7 -35 -17 -10 -19 -8 -22 21 -2 18 -1 49 1 70
l3 39 19 -28 c13 -20 15 -30 7 -35z m1542 54 c0 -17 -19 -35 -29 -29 -18 12
-12 36 9 36 11 0 20 -3 20 -7z m40 -59 c-16 -41 -12 -49 14 -25 l24 23 -7 -34
c-5 -18 -18 -49 -29 -68 -27 -44 -28 -63 -2 -31 24 28 27 10 6 -40 -27 -67
-29 -79 -11 -72 16 5 16 4 1 -26 -20 -37 -36 -40 -36 -7 0 13 -7 56 -16 96
-14 60 -15 78 -4 110 7 21 10 50 6 63 -5 21 -2 26 16 30 47 9 48 8 38 -19z
m-1168 -39 c0 -5 -5 -11 -11 -13 -6 -2 -11 4 -11 13 0 9 5 15 11 13 6 -2 11
-8 11 -13z m-408 -60 c5 -22 4 -26 -4 -15 -5 8 -10 24 -10 34 0 26 6 18 14
-19z m334 10 c-22 -21 -118 -68 -125 -61 -17 17 97 89 124 79 12 -5 12 -8 1
-18z m184 -1 c3 -3 -13 -23 -35 -44 -23 -21 -43 -37 -45 -35 -2 2 9 22 24 44
25 38 43 49 56 35z m576 -24 c-23 -32 -33 -36 -43 -20 -11 17 -31 11 -42 -12
-11 -23 -11 -23 -22 6 -6 16 -10 31 -8 33 6 5 86 21 115 22 l23 1 -23 -30z
m-658 11 c0 -16 -60 -61 -81 -61 -16 0 -18 3 -9 19 19 37 90 70 90 42z m2406
-100 c24 -58 50 -111 56 -118 13 -16 13 -15 -29 -37 -20 -10 -34 -12 -38 -6
-3 6 -2 10 2 10 5 0 14 9 21 21 11 17 11 27 1 50 -14 35 -13 36 -151 -34 -86
-44 -103 -56 -102 -75 1 -36 -14 -21 -46 46 -31 66 -31 69 -1 50 16 -10 38 -3
135 42 64 29 116 57 116 61 0 29 -26 59 -57 65 -35 7 -34 18 2 27 39 9 46 1
91 -102z m-2246 82 c8 -7 -32 -33 -52 -33 -21 0 -24 20 -6 38 11 11 44 8 58
-5z m340 -18 c0 -30 -25 -34 -40 -6 -8 16 -6 20 8 24 31 8 32 7 32 -18z
m-1870 -4 c0 -19 69 -57 220 -122 28 -12 49 -26 47 -32 -1 -5 -75 -33 -162
-62 l-160 -52 86 -42 c95 -45 114 -49 123 -25 3 8 10 13 15 9 6 -3 1 -26 -11
-55 -21 -52 -42 -67 -36 -27 3 19 -12 30 -111 80 -108 54 -115 57 -132 41 -27
-24 -33 -12 -16 29 14 33 21 37 157 82 97 32 138 50 129 56 -8 5 -47 23 -87
40 -70 29 -75 30 -93 13 -29 -26 -31 -13 -7 39 23 49 38 60 38 28z m1793 -26
c28 -59 19 -77 -28 -59 -15 6 -45 54 -45 73 0 9 19 17 46 20 6 0 18 -15 27
-34z m-162 -16 c26 -26 23 -73 -7 -77 -26 -4 -74 34 -74 59 0 11 10 24 23 29
32 13 35 12 58 -11z m1078 -36 c6 -31 11 -69 11 -85 0 -17 4 -27 10 -23 14 8
13 -3 -5 -61 -20 -67 -18 -74 12 -40 l25 30 -7 -35 c-9 -42 -45 -109 -59 -109
-6 0 8 -19 31 -42 41 -44 70 -88 56 -88 -4 1 -19 7 -33 15 -42 24 -44 17 -8
-27 41 -52 71 -100 92 -151 l16 -38 -52 46 c-28 25 -53 43 -56 41 -2 -3 5 -20
17 -39 23 -38 47 -102 61 -160 l8 -39 -24 23 c-30 28 -30 24 1 -43 14 -30 29
-83 33 -118 l9 -63 -19 26 c-57 78 -55 79 -50 -19 5 -96 -16 -223 -47 -298
l-18 -41 -7 65 -8 65 -22 -71 c-24 -74 -63 -152 -97 -194 -16 -19 -19 -21 -15
-6 4 11 4 40 0 64 l-7 45 -27 -60 c-33 -73 -96 -144 -167 -190 -29 -18 -54
-33 -57 -33 -3 0 2 16 10 35 7 19 14 44 14 56 0 20 -5 17 -35 -18 -30 -35
-152 -123 -170 -123 -4 0 -3 20 1 45 l6 45 -78 -82 c-44 -46 -80 -85 -81 -87
-2 -2 -5 -2 -8 1 -3 2 2 36 11 74 25 114 27 142 14 174 -28 67 -284 194 -442
218 l-53 9 35 15 c19 8 36 11 38 7 2 -4 27 -5 57 -2 29 3 62 2 72 -1 16 -7 16
-9 -7 -21 l-25 -13 25 -10 c78 -30 166 -75 234 -121 83 -56 95 -52 56 22 -23
43 -22 44 29 17 38 -19 71 -68 71 -107 0 -10 4 -24 8 -31 14 -21 62 79 62 129
l1 44 22 -40 c15 -28 21 -58 22 -102 l0 -62 31 48 c16 27 36 68 44 92 20 65
34 73 26 15 -5 -41 -4 -47 8 -37 22 19 56 107 64 169 l8 57 12 -53 c7 -29 12
-83 12 -120 l1 -67 21 25 c71 84 106 239 74 330 -8 24 -14 46 -12 48 5 5 61
-69 81 -108 10 -19 24 -53 30 -75 l13 -40 13 45 c18 59 18 262 0 313 -7 21
-11 41 -8 44 8 8 56 -68 83 -134 l25 -58 -3 95 c-3 82 -8 104 -35 163 -18 37
-30 67 -28 67 3 0 24 -17 46 -37 39 -35 41 -36 34 -13 -14 46 -55 115 -95 158
-45 48 -36 53 28 16 36 -21 44 -23 39 -10 -15 39 -80 126 -113 151 -45 34 -37
44 12 16 20 -12 39 -20 41 -17 11 10 -46 70 -97 102 l-55 35 53 -3 c28 -2 52
1 52 5 0 4 -21 17 -47 29 l-46 20 29 13 c60 26 90 79 113 201 22 113 33 154
41 154 4 0 12 -26 19 -57z m-1509 37 c0 -12 -78 -65 -107 -72 -32 -8 -36 5
-10 29 44 41 117 68 117 43z m-182 -52 c-49 -58 -159 -210 -177 -245 -6 -12
-11 -43 -11 -69 l0 -47 -24 22 c-15 14 -26 19 -31 12 -9 -16 -24 -13 -21 3 1
8 42 73 91 146 64 96 105 145 149 181 33 27 62 49 64 49 2 0 -16 -24 -40 -52z
m277 -40 c-76 -100 -120 -191 -155 -320 -29 -111 -45 -152 -34 -87 10 55 43
181 60 224 29 74 157 255 181 255 2 0 -22 -33 -52 -72z m103 36 c-4 -22 -52
-58 -69 -52 -10 3 -4 14 18 36 34 35 56 41 51 16z m541 -10 c20 -25 28 -54 15
-54 -28 0 -71 51 -59 70 10 16 22 12 44 -16z m662 -69 c-34 -101 -56 -134 -45
-68 4 27 2 48 -5 57 -9 10 -2 23 31 57 24 24 44 44 46 43 1 0 -11 -40 -27 -89z
m236 75 c28 -17 31 -23 26 -53 -4 -28 -1 -37 18 -51 13 -9 31 -16 40 -16 9 0
28 -9 43 -21 30 -23 35 -59 9 -59 -26 1 -105 38 -131 63 -31 29 -68 157 -44
157 4 0 21 -9 39 -20z m-1577 2 c0 -5 -6 -17 -14 -28 -11 -15 -17 -16 -27 -7
-16 16 -4 43 21 43 11 0 20 -4 20 -8z m760 -66 c-1 -17 -4 -14 -20 14 -25 45
-25 61 0 31 11 -13 20 -33 20 -45z m235 -55 l-7 -26 -9 24 c-6 16 -5 36 3 60
l13 36 3 -34 c2 -19 0 -46 -3 -60z m-677 51 c52 -46 65 -107 37 -162 -16 -30
-39 -43 -29 -15 7 18 -23 110 -43 130 -8 8 -30 15 -49 15 -29 0 -34 3 -34 24
0 45 71 50 118 8z m-494 -7 c-3 -8 -22 -19 -42 -26 -21 -6 -49 -20 -64 -31
-32 -22 -34 -19 -13 21 23 45 135 79 119 36z m116 11 c0 -16 -26 -46 -41 -46
-16 0 -10 39 9 49 24 14 32 13 32 -3z m530 -28 c0 -5 -4 -8 -10 -8 -5 0 -10
10 -10 23 0 18 2 19 10 7 5 -8 10 -18 10 -22z m164 11 c27 -21 36 -69 14 -69
-28 1 -93 46 -96 68 -3 18 1 22 26 22 16 0 41 -9 56 -21z m-560 -22 c-6 -16
-44 -40 -52 -33 -8 8 29 46 44 46 7 0 11 -6 8 -13z m102 -9 c7 -11 -47 -68
-66 -68 -18 0 -10 31 15 55 27 28 40 31 51 13z m1043 -60 c-22 -45 -66 -98
-81 -98 -5 0 -6 5 -3 10 3 6 1 10 -6 10 -8 0 -8 4 2 16 11 13 9 14 -16 8 l-28
-7 32 47 c27 39 37 46 65 46 23 0 36 6 41 18 5 10 9 13 12 5 2 -6 -6 -31 -18
-55z m-1409 39 c0 -17 -29 -57 -41 -57 -15 0 -10 37 7 54 19 19 34 21 34 3z
m1015 -13 c14 -15 25 -39 25 -53 l-1 -26 -21 29 c-12 16 -37 35 -55 43 -19 7
-31 18 -28 23 12 19 56 10 80 -16z m-315 -49 c17 -18 29 -23 47 -19 58 15 101
-84 48 -108 -14 -6 -26 -9 -28 -7 -1 2 -9 18 -18 34 -9 17 -22 28 -30 26 -8
-2 -27 -6 -44 -9 -16 -3 -47 -20 -69 -38 -37 -32 -115 -69 -88 -42 22 22 12
29 -19 13 -29 -15 -30 -15 -21 2 16 29 50 56 105 83 45 22 52 29 55 58 4 40
28 43 62 7z m-630 -9 c0 -22 -11 -46 -21 -46 -10 0 -12 43 -2 53 11 12 23 8
23 -7z m357 -27 c19 -54 -8 -152 -51 -188 -12 -10 -15 -9 -15 6 0 10 -3 48 -7
85 -6 58 -4 71 16 103 26 42 41 41 57 -6z m-573 -16 c-24 -58 -34 -94 -34
-133 -1 -49 -20 -16 -22 37 -1 41 12 74 45 111 28 30 30 28 11 -15z m406 19
c0 -26 -34 -102 -44 -99 -17 6 -10 66 10 88 18 20 34 25 34 11z m2250 -7 c11
-10 69 -21 170 -32 84 -10 155 -23 157 -29 2 -5 -53 -54 -122 -107 -92 -72
-125 -103 -125 -119 0 -34 -16 -9 -33 52 -16 53 -14 78 3 50 7 -11 15 -9 44
11 20 13 36 26 36 29 0 3 -6 25 -14 50 -13 43 -15 45 -55 48 -36 3 -41 1 -41
-17 0 -37 -16 -22 -32 29 -17 53 -15 59 12 35z m-1369 -6 c16 -8 18 -13 8 -25
-15 -18 -50 -18 -75 1 -16 13 -17 16 -4 25 20 13 46 13 71 -1z m734 -20 c30
-15 53 -44 43 -54 -3 -4 -25 -1 -47 6 -23 7 -43 10 -46 7 -12 -11 9 -91 29
-114 12 -13 36 -27 54 -30 l32 -6 0 46 c0 39 3 46 20 46 25 0 40 -29 40 -77 0
-51 -9 -80 -26 -87 -20 -7 -153 64 -172 92 -8 13 -15 37 -14 55 0 17 -9 48
-20 68 -30 53 -19 73 35 67 24 -3 56 -11 72 -19z m-1915 -10 c0 -25 -17 -59
-30 -59 -13 0 -13 22 0 54 11 31 30 34 30 5z m188 -48 c-2 -13 -8 -26 -15 -28
-17 -6 -26 52 -12 79 l12 22 9 -24 c5 -13 8 -35 6 -49z m833 27 c43 -46 51
-98 15 -98 -26 0 -86 65 -86 92 0 35 40 38 71 6z m-2215 -56 c1 -2 41 -12 88
-22 104 -23 141 -41 161 -80 41 -80 -21 -200 -104 -200 -11 0 -61 9 -111 21
-89 20 -92 21 -105 3 -22 -31 -25 -12 -8 60 14 63 16 66 27 45 12 -26 66 -44
164 -55 65 -8 97 7 112 51 14 43 -1 80 -40 100 -24 12 -159 45 -185 45 -3 0
-13 -10 -25 -22 -17 -19 -20 -19 -20 -4 0 9 5 38 12 64 11 44 12 45 22 22 5
-14 11 -26 12 -28z m1264 24 c0 -14 -4 -28 -10 -31 -6 -4 -10 7 -10 24 0 17 5
31 10 31 6 0 10 -11 10 -24z m1153 17 c-13 -2 -33 -2 -45 0 -13 2 -3 4 22 4
25 0 35 -2 23 -4z m-338 -67 c0 -22 -38 -51 -77 -60 -27 -6 -27 -5 -16 21 24
57 93 86 93 39z m-1165 -15 c0 -20 -17 -37 -27 -28 -7 8 7 47 18 47 5 0 9 -9
9 -19z m294 10 c3 -5 -3 -20 -14 -32 -15 -19 -19 -21 -20 -7 0 37 21 61 34 39z
m212 -51 c6 -31 5 -33 -9 -20 -15 15 -20 32 -18 60 2 24 20 -3 27 -40z m54 2
c-1 -25 -2 -26 -15 -9 -7 11 -11 25 -8 33 8 22 23 6 23 -24z m1078 15 c7 -6
18 -19 24 -30 10 -19 7 -18 -33 5 -49 29 -66 54 -28 43 13 -4 30 -12 37 -18z
m-1410 -28 c-3 -8 -7 -3 -11 10 -4 17 -3 21 5 13 5 -5 8 -16 6 -23z m192 -6
c0 -7 9 -22 20 -33 11 -11 20 -26 20 -32 -1 -25 -60 57 -60 82 0 20 2 22 10
10 5 -8 10 -21 10 -27z m1078 21 c28 -19 82 -112 82 -141 0 -47 -37 -39 -68
15 -11 20 -32 48 -46 61 -14 14 -26 34 -26 46 0 38 21 45 58 19z m952 -55 c0
-17 22 -41 85 -93 l30 -25 -32 -1 c-40 0 -95 25 -112 52 -14 23 -31 109 -24
121 8 13 53 -34 53 -54z m-1222 39 c29 -29 -5 -78 -53 -78 -21 0 -65 33 -65
49 0 11 61 40 86 40 11 1 25 -4 32 -11z m-904 -23 c-4 -8 -8 -15 -10 -15 -2 0
-4 7 -4 15 0 8 4 15 10 15 5 0 7 -7 4 -15z m-271 -166 c48 -47 41 -58 -12 -17
-27 21 -51 23 -52 6 0 -7 -2 -21 -4 -30 -2 -14 4 -18 26 -18 36 0 38 -16 4
-24 -30 -8 -31 -20 -5 -88 23 -60 24 -68 10 -68 -14 0 -60 154 -60 201 0 22 8
72 18 112 l17 72 3 -48 c3 -42 9 -53 55 -98z m67 112 c0 -22 19 -41 43 -41 27
0 19 -44 -9 -48 -28 -4 -74 50 -74 88 0 23 3 27 20 23 11 -3 20 -13 20 -22z
m790 0 c0 -16 -10 -39 -24 -54 -46 -49 -116 -47 -146 5 -14 25 -13 29 4 45 14
13 20 15 23 5 6 -16 32 -42 43 -42 5 0 16 7 25 16 11 12 13 20 6 27 -20 20
-12 27 29 27 37 0 40 -2 40 -29z m774 23 c9 -3 16 -10 16 -15 0 -15 -37 -10
-50 6 -10 12 -10 15 3 15 8 0 22 -3 31 -6z m-310 -69 c10 -22 24 -43 31 -47 6
-4 23 -16 36 -27 22 -17 22 -21 10 -45 -13 -23 -12 -28 2 -44 35 -38 13 -71
-38 -58 -29 7 -59 59 -51 89 7 27 -20 57 -51 57 -34 0 -61 59 -45 95 10 22 18
26 50 23 32 -3 39 -8 56 -43z m1850 -55 c5 -48 4 -53 -8 -37 -16 21 -53 22
-171 2 -63 -11 -95 -22 -106 -35 -16 -18 -17 -16 -27 43 -11 68 -8 80 11 53
13 -17 18 -17 123 -1 128 20 154 28 155 52 1 32 16 -17 23 -77z m-2048 25 c20
-37 13 -65 -15 -65 -31 0 -73 83 -56 110 10 16 52 -11 71 -45z m-113 -3 c28
-25 22 -45 -12 -37 -22 5 -49 -2 -101 -25 -76 -34 -148 -51 -137 -33 4 6 24
13 46 17 28 4 55 20 92 55 55 50 75 54 112 23z m1167 3 c39 -20 60 -63 60
-123 0 -98 -51 -108 -94 -19 -33 67 -44 136 -25 148 19 12 26 11 59 -6z m-481
-24 c20 -20 39 -87 28 -98 -11 -10 -56 26 -73 58 -27 53 4 81 45 40z m730 -46
c33 -20 63 -41 67 -47 5 -7 3 -8 -6 -3 -9 6 -11 4 -6 -4 5 -7 11 -10 14 -7 3
3 14 -1 24 -11 41 -37 3 -166 -40 -131 -9 8 -11 23 -7 45 7 37 -21 96 -51 107
-23 9 -54 7 -54 -3 0 -5 -2 -16 -6 -24 -3 -8 11 -35 30 -61 42 -54 44 -66 13
-66 -24 0 -56 28 -76 67 -14 27 -14 128 -1 154 15 27 30 24 99 -16z m-1850
-22 c-14 -37 -3 -135 22 -193 l19 -45 -38 42 c-50 54 -64 98 -47 147 11 32 41
76 51 76 2 0 -1 -12 -7 -27z m972 -6 c39 -26 54 -77 23 -77 -15 0 -13 -5 9
-28 30 -31 34 -54 12 -72 -34 -28 -111 41 -100 90 4 18 1 31 -10 40 -18 15
-20 41 -3 58 17 17 31 15 69 -11z m-566 -7 c0 -17 -43 -25 -64 -11 -22 14 -2
32 32 29 20 -2 32 -8 32 -18z m114 -55 c-44 -74 -132 -120 -179 -95 -37 20
-24 40 25 40 53 0 88 16 129 59 39 41 50 39 25 -4z m119 18 c-4 -19 -53 -41
-65 -29 -10 9 33 46 54 46 8 0 13 -7 11 -17z m-335 -8 c-4 -15 -56 -12 -61 3
-3 10 5 13 29 10 19 -2 33 -7 32 -13z m-869 -27 c-16 -28 -27 -38 -36 -32 -5
3 -2 14 8 25 19 21 39 26 28 7z m686 -73 c19 -19 28 -35 22 -35 -16 0 -62 45
-62 60 0 15 3 13 40 -25z m598 -2 c4 -27 -32 -53 -75 -53 -58 0 -51 39 12 66
40 18 59 14 63 -13z m425 -19 c15 -22 29 -53 30 -69 2 -28 -1 -30 -29 -29 -43
2 -84 31 -84 59 0 13 7 25 15 29 8 3 15 17 15 32 0 35 18 27 53 -22z m-903 0
c24 -24 -23 -18 -51 7 l-24 20 30 -6 c17 -3 37 -13 45 -21z m298 -11 c-19 -23
-114 -83 -133 -83 -20 0 -19 23 3 42 9 9 44 29 77 46 59 29 80 27 53 -5z
m1580 -58 c-3 -26 -6 -23 -36 36 l-33 64 36 -36 c28 -28 36 -43 33 -64z m-537
39 c21 -22 24 -35 24 -94 0 -54 -4 -73 -18 -87 -18 -17 -19 -17 -33 1 -15 22
-21 206 -6 206 5 0 19 -12 33 -26z m468 -68 c21 -33 29 -96 13 -96 -23 0 -62
59 -68 104 -7 47 -6 48 14 37 11 -6 30 -26 41 -45z m-1719 28 c-15 -18 -71
-15 -78 4 -2 8 10 12 43 12 42 0 46 -2 35 -16z m550 6 c0 -5 -9 -10 -21 -10
-11 0 -17 5 -14 10 3 6 13 10 21 10 8 0 14 -4 14 -10z m950 -59 c0 -26 -28
-91 -40 -91 -30 0 -38 103 -8 121 17 11 48 -8 48 -30z m-1633 7 c35 -24 42
-38 19 -38 -16 0 -66 38 -66 51 0 14 11 11 47 -13z m775 -25 c26 -23 24 -78
-4 -97 -22 -16 -102 -22 -132 -10 -27 11 -18 33 24 54 24 12 40 27 40 39 0 10
3 21 7 24 12 12 46 7 65 -10z m-224 -12 c-2 -9 -16 -22 -31 -29 -44 -21 -126
0 -115 29 4 10 27 14 77 15 60 0 71 -2 69 -15z m-393 -1 c11 -18 -15 -40 -46
-40 -30 0 -38 17 -17 38 15 15 55 16 63 2z m1551 -5 c29 -20 54 -76 54 -120 0
-45 -52 -146 -92 -181 -34 -28 -70 -31 -92 -8 -16 16 -22 115 -10 162 9 33 34
28 34 -7 0 -41 17 -81 34 -81 21 0 54 47 62 88 4 23 1 51 -10 81 -27 76 -21
95 20 66z m-1386 -20 c0 -19 -24 -29 -46 -21 -13 5 -14 9 -4 21 16 20 50 19
50 0z m-1071 -52 c44 -15 51 -15 99 0 60 20 94 21 110 5 21 -21 13 -28 -28
-28 -50 0 -65 -23 -55 -86 8 -55 -5 -57 -40 -7 -28 42 -29 42 -15 -7 l9 -35
-27 32 c-15 17 -46 54 -69 81 -59 69 -58 72 16 45z m720 3 c-2 -2 -17 -6 -34
-10 -22 -5 -26 -4 -15 4 14 9 59 15 49 6z m-84 -15 c3 -5 1 -13 -5 -16 -15 -9
-43 3 -35 15 8 13 32 13 40 1z m-77 -18 c-2 -10 -10 -18 -18 -18 -8 0 -16 8
-18 18 -2 12 3 17 18 17 15 0 20 -5 18 -17z m632 7 c-20 -13 -80 -13 -80 0 0
6 21 10 48 10 34 0 43 -3 32 -10z m-705 -20 c0 -8 -10 -16 -22 -18 -22 -3 -32
16 -16 32 12 11 38 2 38 -14z m-1303 -1 c23 -12 48 -66 48 -104 0 -17 -8 -29
-25 -37 -34 -15 -42 -5 -16 21 24 24 25 34 11 62 -12 21 -52 25 -68 6 -6 -6
-14 -26 -18 -42 -20 -84 -60 -115 -118 -91 -38 16 -66 66 -66 119 0 30 4 37
31 46 45 16 57 13 33 -7 -47 -40 -54 -91 -13 -112 30 -17 55 4 74 61 27 82 70
108 127 78z m3743 1 c-3 -5 -15 -10 -25 -10 -23 0 -42 -32 -38 -63 2 -16 11
-23 32 -25 23 -3 37 5 75 47 54 59 84 65 128 27 23 -20 28 -32 27 -68 0 -23
-6 -55 -12 -70 -9 -23 -18 -28 -47 -28 -19 0 -35 5 -35 10 0 6 6 10 14 10 24
0 66 41 66 65 0 33 -27 57 -54 49 -11 -3 -42 -29 -68 -56 -41 -45 -50 -50 -75
-43 -59 14 -84 66 -63 130 10 31 15 35 46 35 21 0 33 -4 29 -10z m-2514 -15
c0 -6 -10 -12 -23 -13 -19 -4 -20 -2 -9 12 15 17 33 18 32 1z m649 0 c52 -8
109 -19 125 -25 l30 -10 -30 4 c-16 2 -67 10 -112 16 -47 7 -147 11 -232 9
-136 -4 -171 1 -116 14 45 11 246 6 335 -8z m318 -25 c78 -36 40 -85 -67 -85
-40 0 -66 6 -86 20 l-30 20 45 5 c38 5 41 7 22 13 -28 11 -20 24 21 36 45 13
47 13 95 -9z m676 -6 c18 -47 -13 -131 -52 -141 -53 -13 -53 31 -1 110 33 50
43 56 53 31z m-1364 -9 c-11 -13 -3 -15 66 -15 86 0 238 -33 340 -73 56 -22
119 -55 84 -43 -8 2 -55 18 -105 34 -112 37 -216 59 -320 67 -71 6 -88 4 -148
-19 -37 -14 -78 -26 -92 -26 -13 0 -35 -5 -49 -11 -20 -9 -29 -9 -41 1 -24 20
-2 36 58 43 41 5 122 26 216 56 2 0 -2 -6 -9 -14z m1947 -37 c-3 -8 -6 -5 -6
6 -1 11 2 17 5 13 3 -3 4 -12 1 -19z m-2682 -22 c18 -13 18 -13 -5 -12 -13 0
-25 7 -28 14 -5 16 10 15 33 -2z m438 -21 c-4 -15 -36 -12 -41 3 -3 9 3 13 19
10 13 -1 23 -7 22 -13z m2177 -41 c0 -31 -5 -46 -15 -51 -9 -3 -18 -3 -22 0
-17 17 9 113 27 102 5 -3 10 -26 10 -51z m-2240 36 c0 -5 -7 -10 -15 -10 -8 0
-15 5 -15 10 0 6 7 10 15 10 8 0 15 -4 15 -10z m339 -19 c11 -7 4 -11 -25 -16
-57 -10 -61 -12 -39 -20 11 -4 55 -21 98 -37 93 -36 205 -108 267 -174 l45
-48 -55 46 c-96 79 -216 149 -313 182 -40 13 -63 15 -123 7 -41 -5 -83 -7 -94
-4 -40 11 -12 28 56 35 38 4 89 14 114 22 57 18 52 17 69 7z m-1409 -94 c0
-10 -25 -63 -55 -119 -30 -56 -53 -103 -51 -105 2 -3 35 8 72 24 53 22 70 34
74 53 6 24 7 23 23 -14 21 -48 22 -62 2 -46 -15 12 -90 -8 -194 -52 -88 -37
-85 -23 38 196 12 21 20 40 17 43 -2 3 -40 -10 -83 -29 -67 -29 -78 -37 -75
-56 5 -38 -12 -24 -29 23 -17 46 -14 66 5 39 10 -14 21 -12 95 15 104 38 131
55 132 84 1 19 2 19 14 -8 8 -16 14 -38 15 -48z m3580 58 c0 -16 32 -35 114
-65 89 -34 116 -89 81 -165 -30 -62 -78 -69 -191 -25 -52 20 -82 26 -88 20
-22 -22 -24 -7 -4 40 19 46 22 49 34 32 18 -26 157 -76 189 -68 14 4 32 20 41
37 31 61 -8 100 -143 140 -35 10 -45 10 -60 -2 -15 -12 -16 -12 -10 4 4 11 10
30 13 43 7 26 24 33 24 9z m-2510 -5 c0 -5 -7 -10 -16 -10 -8 0 -12 5 -9 10 3
6 10 10 16 10 5 0 9 -4 9 -10z m68 -8 c2 -7 -6 -12 -17 -12 -21 0 -27 11 -14
24 9 9 26 2 31 -12z m246 -87 c28 -18 74 -57 101 -86 l50 -53 -50 43 c-27 23
-81 63 -120 88 -38 26 -74 50 -80 55 -22 20 50 -14 99 -47z m-151 28 c31 -17
31 -18 8 -21 -25 -4 -71 15 -71 30 0 13 29 9 63 -9z m1992 -53 c8 -16 15 -47
15 -70 0 -65 -53 -151 -77 -126 -4 4 1 31 11 60 14 42 16 58 7 75 -15 27 -23
27 -58 -3 -27 -23 -28 -28 -28 -113 0 -83 -1 -88 -22 -91 -25 -4 -30 7 -39
103 l-6 70 41 46 c40 46 91 78 123 79 10 0 24 -13 33 -30z m-615 -3 c0 -7 -11
-28 -25 -47 -30 -40 -33 -70 -7 -70 26 0 49 29 68 84 19 55 38 56 42 2 7 -82
-67 -168 -146 -170 -30 -1 -38 3 -45 25 -16 42 0 93 44 143 40 45 69 59 69 33z
m-1562 -60 c5 -24 -15 -21 -28 4 -10 18 -9 20 7 17 10 -2 19 -11 21 -21z m92
-28 c0 -5 -4 -9 -10 -9 -5 0 -10 7 -10 16 0 8 5 12 10 9 6 -3 10 -10 10 -16z
m-52 -37 c2 -7 -3 -12 -12 -12 -9 0 -16 7 -16 16 0 17 22 14 28 -4z m2461 -78
c26 -33 27 -70 2 -111 l-20 -32 35 -20 c27 -16 40 -19 55 -11 26 15 24 7 -16
-53 -30 -45 -35 -48 -35 -27 0 21 -15 35 -92 82 -56 33 -97 52 -102 47 -44
-41 6 70 55 123 36 38 89 39 118 2z m-1145 0 c18 -46 -16 -121 -67 -153 -45
-28 -50 -27 -32 9 18 36 19 40 2 40 -25 0 -82 -68 -100 -118 -19 -55 -41 -72
-56 -43 -22 40 33 159 96 209 46 36 112 71 134 72 9 0 20 -7 23 -16z m-2254
-54 c36 -26 69 -90 70 -135 0 -65 -72 -135 -138 -135 -145 0 -214 188 -99 271
36 26 49 30 88 27 27 -3 60 -15 79 -28z m1925 -168 c-15 -27 -56 -78 -92 -113
l-65 -64 6 58 c6 53 38 137 52 137 4 0 4 -13 2 -30 -3 -16 -2 -30 1 -30 3 0
31 26 61 58 61 64 75 57 35 -16z m1258 35 c-4 -20 9 -34 77 -88 49 -38 90 -63
102 -61 19 2 19 2 0 -25 -11 -16 -30 -37 -42 -48 l-23 -20 7 21 c5 17 -7 33
-63 82 -38 34 -72 62 -75 62 -3 0 6 -26 20 -57 50 -111 67 -154 62 -158 -2 -3
-49 13 -104 34 -54 21 -101 37 -103 35 -3 -3 22 -32 55 -65 49 -50 64 -60 87
-56 35 5 34 0 -5 -35 -36 -32 -43 -34 -35 -14 4 9 -21 46 -62 93 -58 66 -72
78 -96 76 l-29 -2 32 31 32 32 86 -28 c47 -15 87 -26 89 -24 2 2 -12 39 -31
82 -19 44 -34 84 -34 90 0 8 49 66 55 66 1 0 0 -11 -2 -23z m-1423 -41 c-7
-23 -37 -58 -84 -101 -40 -36 -76 -65 -79 -65 -3 0 -3 10 1 22 5 22 163 191
170 183 2 -2 -1 -20 -8 -39z m-1550 -94 c0 -2 -8 -1 -18 2 -15 5 -26 -8 -55
-66 -20 -39 -36 -72 -34 -73 1 -2 39 16 85 38 45 22 85 37 89 34 3 -4 -12 -46
-34 -94 -23 -49 -39 -90 -38 -91 2 -2 35 15 74 38 60 35 70 46 65 63 -7 22 6
18 44 -16 29 -27 28 -39 -3 -31 -20 5 -51 -8 -135 -55 -60 -33 -111 -61 -114
-61 -13 0 -4 32 28 109 19 45 32 81 30 81 -3 0 -41 -18 -85 -40 -44 -23 -84
-38 -89 -35 -5 3 15 55 45 115 33 65 55 123 55 142 l0 32 45 -44 c25 -24 45
-46 45 -48z m2463 65 c6 -17 -9 -101 -23 -127 -6 -11 -17 -20 -25 -20 -20 0
-45 28 -45 51 0 28 26 75 52 93 27 19 34 20 41 3z m274 -313 c59 -37 119 -66
133 -66 23 0 22 -2 -15 -34 -42 -36 -61 -43 -52 -21 3 8 -7 21 -24 31 -29 17
-31 17 -64 -9 -40 -30 -40 -27 -20 -65 10 -19 20 -27 30 -24 25 10 17 -2 -22
-32 l-36 -27 6 23 c4 15 -8 74 -29 148 -30 109 -35 142 -18 142 2 0 52 -30
111 -66z m-2366 -51 c36 -24 39 -28 21 -34 -11 -4 -43 -47 -71 -96 l-51 -88
26 -23 c15 -13 34 -21 43 -18 9 2 27 8 41 12 l25 7 -24 -27 c-14 -14 -29 -26
-33 -26 -14 0 -167 94 -168 103 0 4 10 7 23 7 31 1 135 174 117 196 -20 23 6
17 51 -13z m2134 -23 c22 -24 14 -36 -13 -21 -34 18 -62 13 -93 -18 -40 -40
-40 -93 0 -149 38 -51 87 -70 128 -48 30 15 53 53 53 87 0 11 5 17 10 14 6 -3
10 -23 10 -44 0 -35 -4 -40 -51 -66 -118 -64 -229 -12 -229 107 0 54 23 88 89
129 53 34 72 36 96 9z m-1889 -106 c46 -20 84 -39 84 -43 -1 -3 -7 -17 -15
-31 l-13 -25 -7 28 c-6 23 -47 57 -69 57 -7 0 -36 -69 -36 -85 0 -18 49 -28
66 -14 22 18 26 6 9 -34 -16 -39 -35 -49 -35 -19 0 15 -35 42 -54 42 -5 0 -36
-78 -36 -90 0 -6 16 -18 35 -27 34 -16 37 -16 65 1 34 20 38 12 11 -23 l-19
-25 -96 44 c-96 43 -115 57 -74 56 18 -1 28 14 60 89 22 50 38 100 35 112 -2
13 -2 23 0 23 3 0 42 -16 89 -36z m1490 -90 c79 -38 91 -145 24 -209 -26 -25
-187 -90 -198 -80 -2 2 2 12 9 22 17 27 -43 223 -68 223 -32 0 2 18 72 38 87
25 118 26 161 6z m-1165 -24 c58 -42 75 -114 41 -179 -37 -74 -116 -95 -200
-52 -98 50 -97 189 0 243 42 23 117 17 159 -12z m299 -55 c47 -24 54 -81 15
-120 -19 -20 -34 -25 -75 -25 l-50 0 0 -40 c0 -27 5 -42 17 -49 31 -17 10 -20
-57 -7 -49 9 -60 14 -44 19 23 8 26 20 40 156 6 56 5 66 -12 79 -17 13 -10 14
60 8 44 -4 91 -13 106 -21z m545 0 c30 -29 32 -58 5 -85 -11 -11 -20 -23 -20
-26 0 -3 23 -30 51 -60 l52 -54 -41 0 c-36 0 -45 5 -78 45 -40 49 -64 58 -64
23 0 -39 12 -68 26 -68 8 0 14 -4 14 -9 0 -9 -56 -21 -99 -21 -23 0 -23 1 -7
13 17 12 17 20 5 113 -9 78 -16 102 -32 115 -20 16 -19 17 34 27 95 17 127 15
154 -13z m-310 -108 c27 -66 57 -127 68 -138 21 -19 20 -19 -41 -19 -57 0 -61
2 -51 18 7 12 7 25 0 45 -10 25 -15 28 -53 25 -35 -3 -43 -7 -51 -31 -7 -23
-6 -31 9 -42 17 -13 13 -14 -36 -14 -54 -1 -55 0 -33 17 13 10 42 65 69 132
39 97 61 137 70 127 1 -1 23 -55 49 -120z m-1166 -33 l29 -42 -44 25 c-42 24
-84 66 -84 85 0 19 71 -30 99 -68z m2295 47 c-10 -17 -40 -42 -68 -57 l-51
-28 26 35 c26 34 84 79 101 79 5 0 1 -13 -8 -29z m-124 -51 c-6 -11 -8 -26 -4
-32 4 -6 3 -8 -4 -4 -6 3 -14 2 -17 -4 -4 -6 -3 -10 2 -9 4 1 33 1 63 0 37 -1
51 -4 44 -11 -15 -15 -78 -24 -110 -16 -25 7 -26 10 -21 47 3 23 16 52 29 66
22 24 23 24 26 4 2 -11 -2 -29 -8 -41z m-2116 31 c24 -26 33 -90 15 -102 -22
-14 -83 -10 -105 6 -18 13 -15 14 31 16 28 1 54 1 59 0 4 -1 -1 14 -13 32 -34
55 -25 90 13 48z m125 -111 c5 -27 14 -37 51 -52 l45 -19 -27 28 c-28 29 -48
83 -31 83 20 0 64 -50 70 -80 6 -31 28 -48 83 -65 24 -7 23 -6 -8 26 -31 32
-50 74 -39 85 10 11 77 -59 85 -89 6 -25 16 -33 51 -45 51 -17 48 -28 -4 -13
-31 8 -41 7 -72 -15 -25 -17 -49 -24 -82 -24 l-46 1 28 24 c19 17 40 25 65 25
41 0 34 12 -16 28 -28 9 -39 8 -72 -9 -28 -15 -48 -18 -74 -13 -20 3 -36 10
-36 14 0 10 55 30 84 30 16 1 12 6 -17 21 -34 18 -39 18 -59 4 -26 -18 -56
-19 -95 -4 -25 9 -26 11 -10 21 10 5 36 8 58 6 40 -4 40 -4 17 14 -25 19 -18
24 13 8 16 -9 15 -5 -6 26 -14 20 -25 46 -25 58 0 19 3 18 31 -10 17 -17 34
-46 38 -64z m1911 66 c0 -14 -12 -38 -26 -55 l-25 -30 23 -5 c13 -3 41 -8 63
-11 37 -6 38 -8 20 -21 -22 -16 -53 -18 -90 -4 -46 17 -46 64 1 119 31 37 34
38 34 7z m-95 -46 c-4 -12 -20 -37 -37 -55 l-29 -34 28 -7 c52 -11 93 -25 98
-34 3 -4 -13 -11 -35 -15 -31 -5 -48 -2 -76 14 -31 19 -40 20 -75 10 -46 -14
-51 -29 -10 -29 18 0 42 -10 58 -25 l28 -24 -37 -1 c-43 0 -78 12 -101 35 -15
14 -22 15 -53 5 -19 -7 -38 -9 -41 -6 -3 3 3 8 13 12 51 16 63 25 69 53 6 28
65 91 85 91 17 0 -12 -60 -43 -92 -18 -17 -25 -29 -17 -25 8 3 32 11 53 18 28
9 37 17 37 35 0 13 17 41 40 65 41 44 57 47 45 9z m-5 -75 c-14 -8 -29 -14
-35 -14 -5 0 1 6 15 14 14 8 30 14 35 14 6 0 -1 -6 -15 -14z m-1307 -50 c20
-3 37 -10 37 -15 0 -13 -14 -12 -27 1 -18 18 -43 2 -43 -27 0 -23 3 -26 25
-22 15 3 25 1 25 -7 0 -20 -11 -24 -31 -12 -21 13 -24 11 -33 -25 -5 -24 -3
-28 19 -34 15 -4 32 -1 40 6 13 11 14 10 9 -5 -6 -14 -14 -16 -52 -10 -66 10
-76 15 -57 29 11 8 16 31 18 73 2 50 5 62 17 59 8 -2 32 -7 53 -11z m886 -4
c8 -5 12 -18 9 -29 -3 -12 2 -26 13 -36 24 -20 24 -27 -2 -60 -21 -27 -79 -38
-79 -15 0 7 9 9 24 5 28 -7 51 15 42 40 -3 9 -15 18 -25 21 -17 4 -18 8 -8 24
16 26 -5 48 -28 29 -9 -8 -15 -8 -15 -2 0 12 28 31 45 32 6 0 16 -4 24 -9z
m-730 -36 c3 -19 3 -19 -16 -2 -48 42 -62 5 -17 -45 22 -25 31 -43 27 -57 -11
-42 -103 -40 -102 2 l0 22 16 -22 c18 -26 48 -30 57 -8 3 9 -5 24 -20 38 -39
33 -45 51 -28 76 21 29 77 26 83 -4z m613 8 c24 -21 23 -31 -7 -75 -14 -20
-25 -39 -25 -42 0 -2 14 0 32 5 38 11 44 7 23 -15 -10 -9 -33 -16 -56 -16
l-40 0 24 33 c30 40 38 62 31 82 -7 18 -35 20 -52 3 -9 -9 -12 -9 -12 -1 0 13
38 43 54 43 5 0 18 -7 28 -17z m-491 -3 c34 0 39 -3 39 -22 -1 -21 -2 -21 -11
-5 -5 9 -19 17 -29 17 -18 0 -20 -7 -20 -63 0 -37 5 -69 13 -76 10 -11 8 -13
-13 -7 -14 3 -31 6 -39 6 -9 0 -10 4 -3 13 5 6 12 38 14 70 3 53 1 57 -19 57
-12 0 -24 -6 -26 -12 -3 -7 -6 -2 -6 11 -1 21 2 23 30 17 17 -3 49 -6 70 -6z
m373 -16 c27 -26 20 -81 -13 -115 -16 -16 -37 -29 -46 -29 -13 0 -9 7 14 29
36 33 39 45 11 36 -27 -9 -60 12 -60 37 0 49 61 76 94 42z m-150 -10 c3 -9 6
-40 6 -69 0 -33 5 -55 13 -58 6 -3 -5 -6 -27 -6 -33 -1 -37 1 -26 14 15 19 7
108 -10 113 -9 3 -9 7 1 13 21 13 36 11 43 -7z m-154 -119 c0 -8 -7 -15 -15
-15 -8 0 -15 7 -15 15 0 8 7 15 15 15 8 0 15 -7 15 -15z"/>
<path d="M3221 4455 c-60 -51 -80 -191 -32 -238 24 -25 81 -28 106 -7 39 33
68 93 73 156 4 57 2 64 -21 88 -35 35 -85 35 -126 1z"/>
<path d="M1502 4371 c-11 -6 -7 -21 17 -70 17 -33 36 -61 41 -61 6 0 19 9 31
21 38 38 4 119 -50 119 -14 0 -32 -4 -39 -9z"/>
<path d="M2494 4113 c-8 -35 -12 -38 -52 -43 l-44 -5 32 -23 c32 -24 34 -35
14 -87 -6 -15 -1 -14 33 6 l40 23 28 -22 c35 -27 41 -23 26 20 -11 31 -10 35
21 61 l32 27 -40 0 c-34 0 -43 4 -52 25 -7 14 -12 32 -12 40 0 29 -17 14 -26
-22z"/>
<path d="M3923 3927 c-24 -11 -43 -24 -43 -27 0 -4 11 -17 24 -29 l24 -22 26
47 c14 25 26 48 26 50 0 8 -16 2 -57 -19z"/>
<path d="M2661 1810 c0 -14 -4 -36 -7 -50 -5 -22 -4 -23 6 -7 6 9 9 32 7 50
-3 25 -4 26 -6 7z"/>
<path d="M4360 3111 c0 -4 5 -22 11 -39 l11 -31 43 32 c25 18 44 35 45 40 0 4
-25 7 -55 7 -30 0 -55 -4 -55 -9z"/>
<path d="M3600 2750 c0 -29 21 -70 37 -70 17 0 18 61 1 78 -18 18 -38 14 -38
-8z"/>
<path d="M3586 2453 c-9 -9 -7 -41 3 -47 5 -3 11 6 14 19 4 25 -4 40 -17 28z"/>
<path d="M4170 1712 c-28 -23 -22 -35 38 -73 42 -27 46 -27 58 -11 21 27 16
48 -17 76 -36 31 -49 32 -79 8z"/>
<path d="M790 1657 c-84 -44 -114 -124 -65 -172 30 -31 58 -31 110 -2 74 42
106 120 68 165 -28 33 -62 36 -113 9z"/>
<path d="M3750 1151 c0 -18 22 -71 30 -71 4 0 18 8 30 18 l23 19 -35 21 c-38
24 -48 27 -48 13z"/>
<path d="M3062 881 c-11 -7 -10 -23 8 -87 27 -94 46 -134 64 -134 25 0 73 48
79 79 8 39 -10 99 -38 127 -25 25 -86 33 -113 15z"/>
<path d="M1932 880 c-56 -23 -80 -163 -36 -211 28 -32 83 -22 110 19 46 67 39
167 -12 191 -29 13 -31 13 -62 1z"/>
<path d="M2255 819 c-4 -5 -9 -35 -12 -65 l-6 -56 29 4 c38 4 62 46 49 84 -11
28 -50 50 -60 33z"/>
<path d="M2775 818 c-10 -25 10 -103 27 -106 42 -8 65 70 30 101 -22 20 -51
22 -57 5z"/>
<path d="M2481 719 c-16 -46 -14 -49 19 -49 34 0 34 1 18 47 -15 41 -23 42
-37 2z"/>
<path d="M2685 439 c-4 -5 -4 -21 -1 -35 9 -32 46 -34 46 -1 0 35 -31 60 -45
36z"/>
</g>
</svg>
